<svg xmlns="http://www.w3.org/2000/svg" viewBox="0 0 129.68 158.61"><defs><style>.cls-1,.cls-2,.cls-3{fill:none;stroke:#231f20;stroke-miterlimit:10;}.cls-1,.cls-3{stroke-linecap:round;}.cls-1,.cls-2{stroke-width:2px;}.cls-3{stroke-width:3px;}</style></defs><g id="Layer_2" data-name="Layer 2"><g id="Layer_2-2" data-name="Layer 2"><path class="cls-1" d="M13.4,19.79s-15,26.49,9.22,74.88c0,0,7.49,22.46,21.89,11.52,0,0,13.93-5-1.51-17.25a.7.7,0,0,0-1.11.38c-.62,2.62-1.19,10.28,9,20.9,0,0,8.06,9.22,20.73,10.94,0,0,7.91-5.65-9.29-20.87a.72.72,0,0,0-1,.08c-1.66,2-5.55,10,15.87,28.91a12,12,0,0,1,2.37,2.77c1,1.67,4.21,4.21,14.08-.32a2.84,2.84,0,0,0,1.63-3.1c-.51-2.48-2.61-7.09-10-14.57a4,4,0,0,0-1-.68c-2.82-1.4-14.44-6.07,11.09,26.79,0,0,23.23,22.84,25.6,5.65a6,6,0,0,0-.37-3c-2.8-7.22-15.93-39.91-17.24-22.36a7.37,7.37,0,0,0,.51,3.35c3.39,8.36,20.09,48,24.74,28.41,0,0,2.88-53.53-28.22-85.79,0,0-13.82-23-59.33-15,0,0-34.85,12.38-30.81-22.24"/><path class="cls-2" d="M38.75,38.22s-4-23.62-17.57-27.07c0,0-17-12.1-20.16-2.59,0,0-1.73,11.23,26.21.86,0,0,9.47-4.06,18.18-.38a7.39,7.39,0,0,0,1.77.54c4,.64,20,2.81,28.34-1.43a2.63,2.63,0,0,0,.81-4.06c-3-3.38-10.56-7.42-26.06,8.5,0,0-5.49,7.77-10.81,27.93"/><path class="cls-2" d="M46.81,25.26s0,8.93,6.63,13c0,0,5.18,4,13.53-6.48,0,0,6.34-7.92-7.49-14,0,0-13.93-3.36-12.67,5.19,0,0-.57,13.24,6.91,8.06,0,0,5.24-2.86-.95-6.19a3.6,3.6,0,0,0-4.89,1.38,10.55,10.55,0,0,0-.76,1.84"/><path class="cls-1" d="M11,26.05S17.87,45.56,29.1,37.79c0,0,3.75-2,6.77-9.74,0,0-2.74-10.93-11.81-10.13,0,0-7.39,1.71-6.25,11.71A4.34,4.34,0,0,0,19,32.21c1.95,2,6.55,5.22,12-.68a2.88,2.88,0,0,0,.57-.93,13.16,13.16,0,0,0,.92-7.36L12.25,23.1"/><path class="cls-1" d="M23,23.24s-.48,5.51,5.07,5.51c0,0,3.15.47,2.68-5.51"/><line class="cls-3" x1="39.32" y1="36.1" x2="39.32" y2="44.95"/></g></g></svg>